<svg width="193" height="200" viewBox="0 0 193 200" fill="none" xmlns="http://www.w3.org/2000/svg">
<path d="M106 29.5739L125 0H192.5V24H142.5L134.5 34V79.6992L148.5 100.5H176.993V126H148.5L134.5 147.87V200H106V147.87L127.692 114.286L106 79.6992V29.5739Z" fill="#007910"/>
<path d="M0 29.732L21.8451 0L46.9414 29.732L71.493 0L94 29.732V79.8108L71.8239 114.365L94 147.918V200H66V59L46.9414 79.8108L28 59V200H0V29.732Z" fill="white"/>
<path d="M0 29.732L21.8451 0L46.9414 29.732L71.493 0L94 29.732V79.8108L71.8239 114.365L94 147.918V200H66V59L46.9414 79.8108L28 59V200H0V29.732Z" fill="white"/>
<path d="M84.1166 114.392L99.9698 90L115.823 114.392L99.9698 138.076L84.1166 114.392Z" fill="white"/>
</svg>
