<svg width="193" height="200" viewBox="0 0 193 200" fill="none" xmlns="http://www.w3.org/2000/svg">
<path d="M106 29.5739L125 0H192.5V24H142.5L134.5 34V79.6992L148.5 100.5H176.993V126H148.5L134.5 147.87V200H106V147.87L127.692 114.286L106 79.6992V29.5739Z" fill="#007910"/>
<path d="M0 29.732L21.8451 0L46.9414 29.732L71.493 0L94 29.732V79.8108L71.8239 114.365L94 147.918V200H63.5493V61.5L46.9414 79.8108L30.4507 61.5V200H0V29.732Z" fill="white"/>
<path d="M0 29.732L21.8451 0L46.9414 29.732L71.493 0L94 29.732V79.8108L71.8239 114.365L94 147.918V200H63.5493V61.5L46.9414 79.8108L30.4507 61.5V200H0V29.732Z" fill="white"/>
<path d="M81.4254 114.491L99.9428 86L118.46 114.491L99.9428 142.156L81.4254 114.491Z" fill="white"/>
</svg>
